HIERARCHY
ROOT Hips
{
	OFFSET 0.00000 0.00000 0.00000
	CHANNELS 6 Xposition Yposition Zposition Zrotation Yrotation Xrotation 
	JOINT LHipJoint
	{
		OFFSET 0 0 0
		CHANNELS 3 Zrotation Yrotation Xrotation
		JOINT LeftHip
		{
			OFFSET 1.57338 -1.94743 0.52196
			CHANNELS 3 Zrotation Yrotation Xrotation
			JOINT LeftKnee
			{
				OFFSET 2.60333 -7.15259 0.00000
				CHANNELS 3 Zrotation Yrotation Xrotation
				JOINT LeftAnkle
				{
					OFFSET 2.77855 -7.63400 0.00000
					CHANNELS 3 Zrotation Yrotation Xrotation
					JOINT LeftToe
					{
						OFFSET 0.19847 -0.54529 2.28466
						CHANNELS 3 Zrotation Yrotation Xrotation
						End Site
						{
							OFFSET 0.00000 -0.00000 1.17993
						}
					}
				}
			}
		}
	}
	JOINT RHipJoint
	{
		OFFSET 0 0 0
		CHANNELS 3 Zrotation Yrotation Xrotation
		JOINT RightHip
		{
			OFFSET -1.61527 -1.94743 0.52196
			CHANNELS 3 Zrotation Yrotation Xrotation
			JOINT RightKnee
			{
				OFFSET -2.53829 -6.97390 0.00000
				CHANNELS 3 Zrotation Yrotation Xrotation
				JOINT RightAnkle
				{
					OFFSET -2.80762 -7.71387 0.00000
					CHANNELS 3 Zrotation Yrotation Xrotation
					JOINT RightToe
					{
						OFFSET -0.30536 -0.83898 2.28801
						CHANNELS 3 Zrotation Yrotation Xrotation
						End Site
						{
							OFFSET -0.00000 -0.00000 1.21323
						}
					}
				}
			}
		}
	}
	JOINT lowerback
	{
		OFFSET 0 0 0
		CHANNELS 3 Zrotation Yrotation Xrotation
		JOINT Chest
		{
			OFFSET -0.04381 1.99497 -0.19778
			CHANNELS 3 Zrotation Yrotation Xrotation
			JOINT Chest2
			{
				OFFSET -0.01959 2.01295 -0.04372
				CHANNELS 3 Zrotation Yrotation Xrotation
				JOINT lowerneck
				{
					OFFSET 0 0 0
					CHANNELS 3 Zrotation Yrotation Xrotation
					JOINT Neck
					{
						OFFSET -0.05459 1.76913 0.09708
						CHANNELS 3 Zrotation Yrotation Xrotation
						JOINT Head
						{
							OFFSET 0.09461 1.77368 -0.11172
							CHANNELS 3 Zrotation Yrotation Xrotation
							End Site
							{
								OFFSET 0.03812 1.78157 -0.04834
							}
						}
					}
				}
				JOINT LeftCollar
				{
					OFFSET 0 0 0
					CHANNELS 3 Zrotation Yrotation Xrotation
					JOINT LeftShoulder
					{
						OFFSET 3.50922 1.24034 -0.28866
CHANNELS 3 Zrotation Xrotation Yrotation
						JOINT LeftElbow
						{
OFFSET 0 -5.401880 0.000000
CHANNELS 3 Zrotation Xrotation Yrotation
							JOINT LeftWrist
							{
OFFSET 0 -3.685590 0.000000
CHANNELS 3 Zrotation Xrotation Yrotation
								JOINT lhand
								{
									OFFSET 0 0 0
CHANNELS 3 Zrotation Xrotation Yrotation
									JOINT LFingers
									{
OFFSET 0 -0.617530 0.000000
CHANNELS 3 Zrotation Xrotation Yrotation
										End Site
										{
OFFSET 0 -0.497870 0.000000
										}
									}
								}
								JOINT LThumb
								{
OFFSET 0 0.000000 0.000000
CHANNELS 3 Zrotation Xrotation Yrotation
									End Site
									{
OFFSET 0 -0.505470 0.505470
									}
								}
							}
						}
					}
				}
				JOINT RightCollar
				{
					OFFSET 0 0 0
					CHANNELS 3 Zrotation Yrotation Xrotation
					JOINT RightShoulder
					{
						OFFSET -2.95373 1.39649 -0.27346
CHANNELS 3 Zrotation Xrotation Yrotation
						JOINT RightElbow
						{
OFFSET 0 -6.106700 -0.000000
CHANNELS 3 Zrotation Xrotation Yrotation
							JOINT RightWrist
							{
OFFSET 0 -3.630520 0.000000
CHANNELS 3 Zrotation Xrotation Yrotation
								JOINT rhand
								{
									OFFSET 0 0 0
CHANNELS 3 Zrotation Xrotation Yrotation
									JOINT RFingers
									{
OFFSET 0 -0.583850 0.000000
CHANNELS 3 Zrotation Xrotation Yrotation
										End Site
										{
OFFSET 0 -0.470710 0.000000
										}
									}
								}
								JOINT RThumb
								{
OFFSET 0 0.000000 0.000000
CHANNELS 3 Zrotation Xrotation Yrotation
									End Site
									{
OFFSET 0 -0.477900 0.477900
									}
								}
							}
						}
					}
				}
			}
		}
	}
}
MOTION
Frames: 5
Frame Time: 0.008333333333333333
7.846100 18.791500 5.098700 -2.909600 -81.137600 5.169500 0.000000 0.000000 0.000000 -19.282800 -6.797300 -5.330100 1.493300 7.719600 21.865500 0.765300 16.059000 -29.025900 0.111500 2.153200 5.929200 0.000000 0.000000 0.000000 22.465300 19.794200 -4.912700 -1.897800 -8.649900 24.706100 -0.419700 -13.458100 -23.435500 -0.027200 -1.065200 2.928200 0.441500 1.233000 5.374700 0.125600 1.653000 1.084900 -0.232300 0.815400 -1.887200 -3.798400 1.233900 -9.686600 4.686200 1.422900 15.316700 2.227200 0.796500 6.167600 -0.000000 0.000000 0.000000 1.653000 -0.076200 -1.835800 8.047600 -13.630000 0.963300 22.556300 32.268100 -23.758000 0.000000 0.000000 0.000000 -7.125000 0.000000 0.000000 -7.221100 55.318900 1.836300 -0.000000 0.000000 0.000000 -7.282600 7.393400 26.186500 -18.390100 -28.653800 -4.734800 -20.043300 11.991300 -3.021300 0.000000 0.000000 0.000000 7.125000 0.000000 -0.000000 5.005900 26.756800 2.224100
7.825617 18.792586 5.073699 -1.767607 -81.143876 4.220037 0.000000 0.000000 0.000000 -19.324905 -6.715419 -5.419707 1.460515 7.638081 21.620057 0.783606 15.857707 -28.940849 0.138353 2.397548 6.605766 0.000000 0.000000 0.000000 22.381065 20.156091 -4.915116 -1.902009 -8.658859 24.733933 -0.414288 -13.714307 -23.678933 -0.025109 -1.023070 2.812182 0.391281 1.120599 5.511178 0.136803 1.503689 0.940339 -0.187338 0.741059 -2.114605 -3.842599 1.256906 -9.595332 4.644782 1.461496 15.369289 2.224004 0.807458 6.166627 0.000000 0.000000 0.000000 1.565503 0.001234 -2.353961 8.197491 -13.872521 0.998925 22.442491 31.608823 -23.519638 0.000000 0.000000 0.000000 -7.125000 0.000000 0.000000 -7.248150 55.048551 1.795469 0.000000 0.000000 0.000000 -7.357596 7.631984 26.057434 -18.255050 -28.482428 -4.670316 -19.797323 11.674122 -3.880032 0.000000 0.000000 0.000000 7.125000 0.000000 0.000000 5.166712 25.852680 2.406008
7.796536 18.795148 5.062561 -2.703364 -81.253323 5.316215 0.000000 0.000000 0.000000 -19.167340 -6.906273 -5.358549 1.449348 7.610127 21.535909 0.764868 16.146017 -29.116330 0.118297 2.217170 6.106219 0.000000 0.000000 0.000000 22.576593 20.360201 -4.828801 -1.880296 -8.612113 24.589272 -0.422533 -13.734612 -23.774927 -0.025905 -1.039353 2.857035 0.700355 1.081191 5.337699 0.205168 1.468944 0.972510 -0.283682 0.722380 -1.978755 -3.746887 1.228624 -9.664961 4.572417 1.425246 15.299148 2.182101 0.791399 6.159897 0.000000 0.000000 0.000000 1.451255 -0.337422 -2.612418 8.467043 -14.307055 1.064592 21.863367 31.031026 -23.581199 0.000000 0.000000 0.000000 -7.125000 0.000000 0.000000 -7.876030 54.996022 1.942319 0.000000 0.000000 0.000000 -7.459176 7.556530 26.206660 -18.107971 -28.295164 -4.600292 -19.131828 11.483079 -3.440357 0.000000 0.000000 0.000000 7.125000 0.000000 0.000000 5.684841 26.331197 2.585137
7.773728 18.796268 5.035808 -4.285698 -81.296913 7.021087 0.000000 0.000000 0.000000 -18.810312 -7.191235 -5.449183 1.479419 7.685261 21.762115 0.827289 16.133921 -29.535591 0.132924 2.350029 6.474038 0.000000 0.000000 0.000000 22.879862 20.022319 -4.932878 -1.833938 -8.511260 24.278078 -0.379252 -13.678898 -23.321494 -0.012331 -0.717043 1.970454 1.112780 1.035532 5.478573 0.288609 1.436761 0.865737 -0.431169 0.702667 -2.159583 -3.749361 1.185158 -9.692084 4.630493 1.348539 15.485176 2.197915 0.756944 6.226130 0.000000 0.000000 0.000000 1.497047 -0.504335 -4.566325 8.688560 -14.662682 1.119960 22.256894 29.473266 -23.419484 0.000000 0.000000 0.000000 -7.125000 0.000000 0.000000 -7.403382 54.907563 1.808775 0.000000 0.000000 0.000000 -7.398996 7.705436 25.616197 -17.878319 -28.000911 -4.492078 -19.198493 12.023015 -3.857822 0.000000 0.000000 0.000000 7.125000 0.000000 0.000000 5.620018 25.890174 2.613722
7.746568 18.798017 5.025275 -0.390037 -81.478131 3.486219 0.000000 0.000000 0.000000 -19.429473 -7.252490 -5.435586 1.429136 7.559098 21.382693 0.809043 16.389018 -29.680706 0.140373 2.414155 6.651788 0.000000 0.000000 0.000000 22.163566 20.164562 -5.348213 -1.880159 -8.611856 24.588411 -0.434766 -13.348143 -23.446890 -0.019898 -0.910600 2.502696 0.638143 1.044799 5.116705 0.211098 1.417892 0.866076 -0.236050 0.698056 -1.966824 -3.912131 0.963001 -9.462535 4.718845 1.049515 15.408455 2.226074 0.606609 6.173712 0.000000 0.000000 0.000000 1.330833 -0.821770 -6.562861 9.067011 -15.267027 1.217797 22.556417 27.922741 -23.668732 0.000000 0.000000 0.000000 -7.125000 0.000000 0.000000 -7.186385 55.226316 1.811076 0.000000 0.000000 0.000000 -7.709935 7.756664 26.047669 -17.999752 -28.156856 -4.549097 -19.166188 11.532068 -3.225251 0.000000 0.000000 0.000000 7.125000 0.000000 0.000000 5.666523 26.557318 2.547328
